#!OML:ASF G:\JayActor3\Patient Classification 1\Patient 1\Session 6\male.ASF
:FULLY-SPECIFIED
:DEGREES
4958
root -6.51962 16.2974 -8.87499 475.482 -84.7242 -479.659
lowerback 2.95116 -0.717197 6.47031
upperback -4.64885 -0.525806 2.84329
thorax -6.55687 -0.551463 -0.595325
lowerneck -0.981694 11.094 10.3419
upperneck 9.62528 15.3603 -9.39085
head 4.56976 7.54703 -3.68485
rclavicle 0 -1.98785e-014
rhumerus -51.3069 -27.8093 -51.3091
rradius 25.8546
rwrist 3.73601
rhand -16.3629 -7.00928
rfingers 7.12502
rthumb 9.85006 -36.7589
lclavicle 0 -1.98785e-014
lhumerus -48.5987 28.145 56.5304
lradius 34.135
lwrist 28.0156
lhand -13.3906 10.2819
lfingers 7.12502
lthumb 12.7167 39.8747
rfemur -2.06901 1.31927 27.1794
rtibia 32.5775
rfoot -27.1726 -11.5348
rtoes 7.4104
lfemur -0.482125 10.4703 -14.6956
ltibia 29.244
lfoot -21.0692 7.55802
ltoes -6.57946
4959
root -6.51554 16.3 -8.85189 478.041 -84.8046 -482.159
lowerback 3.01913 -0.74328 6.36211
upperback -4.65622 -0.560686 2.82135
thorax -6.60415 -0.564549 -0.553937
lowerneck -0.956258 11.16 10.3692
upperneck 9.52519 15.453 -9.46086
head 4.55204 7.59261 -3.70517
rclavicle -1.35174e-014 7.95139e-015
rhumerus -51.3544 -27.5444 -51.4088
rradius 26.0189
rwrist 3.6475
rhand -16.3616 -7.06115
rfingers 7.12502
rthumb 9.85131 -36.8107
lclavicle -1.35174e-014 7.95139e-015
lhumerus -48.4266 27.9189 56.5995
lradius 34.2726
lwrist 27.9424
lhand -13.2688 10.3047
lfingers 7.12502
lthumb 12.8341 39.8901
rfemur -2.30248 1.54887 26.9282
rtibia 32.8541
rfoot -27.2425 -11.5731
rtoes 7.23341
lfemur -0.350358 10.3842 -15.0508
ltibia 28.8851
lfoot -21.0489 7.78846
ltoes -6.32184
4960
root -6.51135 16.3023 -8.82902 480.804 -84.8902 -484.862
lowerback 3.08784 -0.770073 6.22773
upperback -4.66612 -0.598196 2.79496
thorax -6.65412 -0.57771 -0.502298
lowerneck -0.934937 11.2267 10.391
upperneck 9.42836 15.5453 -9.52056
head 4.53481 7.63815 -3.72132
rclavicle -2.32578e-014 1.35174e-014
rhumerus -51.3935 -27.2936 -51.5031
rradius 26.1969
rwrist 3.58588
rhand -16.3572 -7.08528
rfingers 7.12502
rthumb 9.85556 -36.8346
lclavicle -2.32578e-014 1.35174e-014
lhumerus -48.2742 27.7242 56.637
lradius 34.3808
lwrist 27.858
lhand -13.1294 10.3173
lfingers 7.12502
lthumb 12.9684 39.8942
rfemur -2.55142 1.76339 26.6504
rtibia 33.1498
rfoot -27.3122 -11.5915
rtoes 7.04988
lfemur -0.218934 10.3432 -15.4185
ltibia 28.5168
lfoot -21.026 7.98986
ltoes -6.02525
4961
root -6.50689 16.3043 -8.80654 483.754 -84.976 -487.748
lowerback 3.15754 -0.797518 6.06931
upperback -4.67909 -0.638153 2.76561
thorax -6.70748 -0.590946 -0.440019
lowerneck -0.914646 11.2928 10.4097
upperneck 9.33108 15.6363 -9.57386
head 4.51682 7.68321 -3.73518
rclavicle -7.95139e-016 -5.725e-014
rhumerus -51.4284 -27.05 -51.5974
rradius 26.3994
rwrist 3.54577
rhand -16.3369 -7.12747
rfingers 7.12502
rthumb 9.87515 -36.8759
lclavicle -7.95139e-016 -5.725e-014
lhumerus -48.1398 27.553 56.6519
lradius 34.4652
lwrist 27.7665
lhand -12.9915 10.3311
lfingers 7.12502
lthumb 13.1014 39.8995
rfemur -2.81792 1.96544 26.3529
rtibia 33.4644
rfoot -27.3802 -11.5938
rtoes 6.86172
lfemur -0.0884397 10.3394 -15.7937
ltibia 28.1378
lfoot -20.9949 8.16649
ltoes -5.71767
4962
root -6.5019 16.306 -8.78447 486.905 -85.0601 -490.831
lowerback 3.23051 -0.825503 5.88564
upperback -4.69378 -0.680379 2.73429
thorax -6.76404 -0.604011 -0.365351
lowerneck -0.896427 11.3597 10.424
upperneck 9.22994 15.7274 -9.62347
head 4.49743 7.72841 -3.74723
rclavicle 1.78906e-015 4.6118e-014
rhumerus -51.4521 -26.8166 -51.6915
rradius 26.6202
rwrist 3.53314
rhand -16.3139 -7.17922
rfingers 7.12502
rthumb 9.89733 -36.9266
lclavicle 1.78906e-015 4.6118e-014
lhumerus -48.021 27.4083 56.6481
lradius 34.5281
lwrist 27.6813
lhand -12.8661 10.3532
lfingers 7.12502
lthumb 13.2223 39.9139
rfemur -3.10258 2.15858 26.0373
rtibia 33.7951
rfoot -27.4452 -11.5864
rtoes 6.67183
lfemur 0.0379356 10.3607 -16.1779
ltibia 27.7507
lfoot -20.955 8.32434
ltoes -5.41604
4963
root -6.49672 16.3076 -8.76257 490.214 -85.1284 -494.067
lowerback 3.29985 -0.851704 5.69491
upperback -4.7093 -0.721394 2.7019
thorax -6.819 -0.616019 -0.287914
lowerneck -0.88166 11.4264 10.4367
upperneck 9.12656 15.8176 -9.66925
head 4.47746 7.77321 -3.75784
rclavicle -5.96354e-015 7.15625e-015
rhumerus -51.4701 -26.5908 -51.7898
rradius 26.8621
rwrist 3.54145
rhand -16.301 -7.22811
rfingers 7.12502
rthumb 9.90972 -36.9749
lclavicle -5.96354e-015 7.15625e-015
lhumerus -47.9187 27.2773 56.6342
lradius 34.582
lwrist 27.6146
lhand -12.7562 10.3978
lfingers 7.12502
lthumb 13.3282 39.9516
rfemur -3.40417 2.34219 25.7153
rtibia 34.1377
rfoot -27.5015 -11.5711
rtoes 6.46955
lfemur 0.158614 10.4008 -16.5596
ltibia 27.3601
lfoot -20.9087 8.46768
ltoes -5.13293
4964
root -6.49113 16.3091 -8.74084 493.619 -85.1705 -497.393
lowerback 3.36832 -0.876629 5.50457
upperback -4.72683 -0.761061 2.67198
thorax -6.8754 -0.627318 -0.208072
lowerneck -0.870305 11.495 10.444
upperneck 9.02032 15.9094 -9.70734
head 4.45634 7.81891 -3.76511
rclavicle -1.70955e-014 1.19271e-014
rhumerus -51.4754 -26.3609 -51.9032
rradius 27.1237
rwrist 3.54851
rhand -16.2964 -7.29254
rfingers 7.12502
rthumb 9.9142 -37.0391
lclavicle -1.70955e-014 1.19271e-014
lhumerus -47.8339 27.1582 56.6132
lradius 34.6277
lwrist 27.5588
lhand -12.6601 10.4652
lfingers 7.12502
lthumb 13.4208 40.0128
rfemur -3.72452 2.51677 25.3967
rtibia 34.4885
rfoot -27.5477 -11.5454
rtoes 6.26514
lfemur 0.268028 10.4554 -16.9299
ltibia 26.97
lfoot -20.8533 8.60202
ltoes -4.8807
4965
root -6.4853 16.3104 -8.71908 497.137 -85.1898 -500.825
lowerback 3.43112 -0.899689 5.31135
upperback -4.74418 -0.799308 2.64211
thorax -6.92802 -0.637599 -0.126688
lowerneck -0.852622 11.5642 10.4508
upperneck 8.90097 16.0015 -9.74589
head 4.43026 7.86517 -3.77312
rclavicle -4.39314e-014 5.48646e-014
rhumerus -51.465 -26.1332 -52.0294
rradius 27.3951
rwrist 3.55254
rhand -16.3151 -7.32495
rfingers 7.12502
rthumb 9.89616 -37.0724
lclavicle -4.39314e-014 5.48646e-014
lhumerus -47.7645 27.0486 56.588
lradius 34.6663
lwrist 27.5247
lhand -12.5618 10.5436
lfingers 7.12502
lthumb 13.5156 40.085
rfemur -4.06026 2.6747 25.0716
rtibia 34.8438
rfoot -27.5796 -11.5024
rtoes 6.06056
lfemur 0.364993 10.5194 -17.2975
ltibia 26.586
lfoot -20.7983 8.72307
ltoes -4.62571
4966
root -6.47976 16.3112 -8.69703 500.738 -85.1957 -504.341
lowerback 3.48456 -0.925106 5.11173
upperback -4.75824 -0.842434 2.60901
thorax -6.97163 -0.649685 -0.0448416
lowerneck -0.830782 11.6348 10.458
upperneck 8.7737 16.0949 -9.78164
head 4.4011 7.91251 -3.78072
rclavicle 0 -8.74653e-015
rhumerus -51.4381 -25.891 -52.1839
rradius 27.6849
rwrist 3.52916
rhand -16.3573 -7.35662
rfingers 7.12502
rthumb 9.85543 -37.106
lclavicle 0 -8.74653e-015
lhumerus -47.7088 26.955 56.5549
lradius 34.6893
lwrist 27.5004
lhand -12.4561 10.6141
lfingers 7.12502
lthumb 13.6175 40.1487
rfemur -4.39967 2.79806 24.7272
rtibia 35.2016
rfoot -27.5989 -11.4294
rtoes 5.8596
lfemur 0.457518 10.5954 -17.6688
ltibia 26.2113
lfoot -20.749 8.82361
ltoes -4.36991
